# xmcd
#
# Track frame offsets:
#	213
#	12575
#	26337
#	41323
#	55951
#	73842
#	89693
#	114702
#	134387
#	152318
#	168428
#	184166
#	200224
#	217317
#	230599
#	244109
#	262812
#
# Disc length: 3692 seconds
#
# Revision: 1
# Processed by: cddbd v1.5.2PL0 Copyright (c) Steve Scherf et al.
# Submitted via: audiograbber 1.83.01
#
DISCID=f70e6a11
DTITLE=Toby Keith - 35 Biggest Hits (Disk Two)
DYEAR=2008
DGENRE=Coutnry
TTITLE0=I'm Just Talkin' About Tonight
TTITLE1=I Wanna Talk About Me
TTITLE2=My List
TTITLE3=Coutesy Of The Red, White And Blue (The Angry American)
TTITLE4=Who's Your Daddy?
TTITLE5=Beer For My Horses 
TTITLE6=I Love This Bar
TTITLE7=American Soldier
TTITLE8=Whiskey Girl
TTITLE9=Stays In Mexico
TTITLE10=Mockingbird
TTITLE11=Honkytonk U
TTITLE12=As Good As I Once Was
TTITLE13=Big Blue Note
TTITLE14=Get Drunk And Be Somebody
TTITLE15=A Little Too Late
TTITLE16=She's A Hottie
EXTD=
EXTT0=
EXTT1=
EXTT2=
EXTT3=
EXTT4=
EXTT5=
EXTT6=
EXTT7=
EXTT8=
EXTT9=
EXTT10=
EXTT11=
EXTT12=
EXTT13=
EXTT14=
EXTT15=
EXTT16=
PLAYORDER=
